<svg version="1.1" id="Layer_1" xmlns="http://www.w3.org/2000/svg" xmlns:xlink="http://www.w3.org/1999/xlink" x="0px" y="0px"
	 width="100%" viewBox="0 0 381 294" enable-background="new 0 0 381 294" xml:space="preserve">
<path fill="#FEFEFD" opacity="1.000000" stroke="none" 
	d="
M237.000000,295.000000 
	C159.333328,295.000000 82.166618,294.970947 5.000156,295.096161 
	C1.575729,295.101715 0.900066,294.424042 0.904348,290.999878 
	C1.023582,195.666702 1.023582,100.333305 0.904348,5.000120 
	C0.900066,1.575971 1.576192,0.901759 5.000087,0.904877 
	C129.333313,1.018128 253.666687,1.018128 377.999908,0.904877 
	C381.423828,0.901759 382.099915,1.575971 382.095642,5.000120 
	C381.976410,100.333305 381.976410,195.666702 382.095642,290.999878 
	C382.099915,294.424042 381.425232,295.108429 377.999695,295.097809 
	C331.166809,294.952606 284.333344,295.000000 237.000000,295.000000 
z"/>
<path fill="#030202" opacity="1.000000" stroke="none" 
	d="
M328.865143,118.570572 
	C339.891968,111.312904 351.412476,110.336914 363.585205,113.640533 
	C366.783508,114.508545 368.319336,115.818611 367.582794,119.581573 
	C366.790161,123.631012 368.309082,128.908661 366.221252,131.722809 
	C363.871399,134.890137 358.715179,131.500504 354.692017,131.756485 
	C342.218597,132.550186 335.026947,141.161423 338.044647,152.292404 
	C339.884705,159.079681 346.645538,162.462311 352.943512,159.782211 
	C354.491791,159.123337 355.342041,158.154877 355.189514,156.369171 
	C355.001556,154.168457 353.350464,154.897858 352.182587,154.830093 
	C343.664978,154.335815 343.793304,154.357361 344.143616,145.576248 
	C344.300659,141.638931 345.157684,139.713669 349.836884,140.043365 
	C356.289185,140.497986 362.840851,140.253510 369.295197,139.685898 
	C372.853668,139.372971 373.058136,140.761993 373.049164,143.529434 
	C373.022675,151.687592 373.048370,159.853546 373.402863,168.001251 
	C373.530060,170.924759 371.848907,172.421417 370.027496,173.653854 
	C357.061401,182.427216 343.407806,184.216507 328.696960,177.142426 
	C323.972168,176.800354 321.908325,173.311676 319.558319,170.433609 
	C315.341431,165.269226 313.330200,159.191467 313.101318,152.144653 
	C313.910034,148.670212 313.454590,145.511322 313.773987,142.017853 
	C315.598572,134.512772 318.376526,127.873238 323.411469,122.379562 
	C324.848206,120.811890 326.256561,119.134346 328.865143,118.570572 
z"/>
<path fill="#010202" opacity="1.000000" stroke="none" 
	d="
M64.670357,152.182434 
	C65.003479,148.538635 65.103592,145.266541 65.143448,141.549866 
	C63.983974,133.646896 64.592171,126.158173 64.740013,118.682106 
	C64.791451,116.081215 66.318222,114.240112 68.757156,113.494774 
	C81.639091,109.557968 94.628418,108.701889 107.457321,113.410904 
	C111.427597,114.868248 115.366638,117.148514 116.734360,122.356018 
	C122.488220,133.710312 121.506920,143.993942 113.985161,152.583954 
	C108.836540,157.405243 113.578270,161.339142 114.787659,165.767242 
	C114.990784,166.039841 115.009392,165.995636 114.985764,165.991501 
	C115.426186,166.428711 115.471687,167.042343 115.775734,167.869873 
	C117.197403,170.608246 118.473244,173.086319 119.729523,175.918564 
	C113.855247,180.368683 107.054741,180.738937 100.311119,180.825500 
	C97.762375,180.858215 96.594185,178.274658 95.720619,176.059570 
	C94.317078,172.500626 93.282227,168.800339 91.693672,165.313156 
	C91.096230,164.001633 90.647568,162.099152 88.775551,162.457916 
	C87.064972,162.785751 86.956177,164.655563 86.740906,166.114166 
	C86.277519,169.253860 86.498734,172.427551 86.447128,175.584961 
	C86.383476,179.480362 84.534836,181.396545 80.629570,181.428772 
	C76.636986,181.461700 72.644073,181.592880 68.654831,181.350494 
	C66.083595,181.194260 63.891048,180.224136 63.816406,177.347992 
	C63.601780,169.078262 62.626049,160.776352 64.670357,152.182434 
z"/>
<path fill="#FCA408" opacity="1.000000" stroke="none" 
	d="
M302.696991,61.317467 
	C304.868011,64.495422 306.753601,67.436974 308.802124,70.260292 
	C310.114746,72.069397 309.667755,72.971451 307.806732,74.032951 
	C292.073730,83.006744 276.370789,92.034103 260.724701,101.158356 
	C258.651520,102.367378 257.579803,102.083412 256.322571,100.145363 
	C251.739944,93.081154 245.887131,87.224930 238.815491,82.654022 
	C236.827515,81.369057 236.683243,80.260872 237.864487,78.235924 
	C246.990463,62.591694 256.058838,46.912910 264.988739,31.156240 
	C266.400574,28.664997 267.511169,29.446230 269.215454,30.515051 
	C282.182159,38.646954 293.287292,48.793171 302.696991,61.317467 
z"/>
<path fill="#FA644A" opacity="1.000000" stroke="none" 
	d="
M245.324493,227.656357 
	C242.806946,223.314346 240.569839,219.230270 238.122360,215.276443 
	C236.745880,213.052765 236.664352,211.656052 239.187256,210.084030 
	C246.048004,205.809158 251.612167,200.100937 255.988358,193.318176 
	C257.453583,191.047150 258.674377,190.589279 261.137878,192.032562 
	C276.476868,201.019196 291.889130,209.881531 307.325134,218.700974 
	C309.410919,219.892715 310.178375,220.704712 308.625000,223.152115 
	C298.381531,239.291306 285.198303,252.394150 269.073578,262.646118 
	C266.510345,264.275818 265.783600,263.209167 264.658295,261.234711 
	C258.323669,250.119934 251.906174,239.052399 245.324493,227.656357 
z"/>
<path fill="#6197E6" opacity="1.000000" stroke="none" 
	d="
M127.957489,45.047501 
	C134.284058,56.033535 140.367081,66.741142 146.668427,77.318672 
	C148.294891,80.048866 148.096024,81.521721 145.323349,83.284195 
	C138.796921,87.432762 133.379044,92.849762 129.198105,99.368271 
	C127.654076,101.775581 126.400452,102.481697 123.674644,100.881157 
	C108.321815,91.866325 92.885933,82.991951 77.421257,74.169800 
	C75.349602,72.987976 75.014442,72.101501 76.338036,69.998039 
	C86.529945,53.801086 99.680412,40.623722 115.853958,30.385132 
	C118.326012,28.820210 119.177879,29.615601 120.327240,31.742071 
	C122.699715,36.131420 125.292862,40.401497 127.957489,45.047501 
z"/>
<path fill="#6197E6" opacity="1.000000" stroke="none" 
	d="
M144.075714,209.012436 
	C148.012070,210.880081 148.345718,212.955215 146.230515,216.508698 
	C137.462616,231.238556 128.940155,246.116837 120.515823,261.046844 
	C118.940971,263.837860 117.855461,263.895569 115.269417,262.237305 
	C99.592941,252.184967 86.788788,239.360382 76.727989,223.690079 
	C75.012901,221.018707 75.305397,219.987854 78.001778,218.462997 
	C93.068794,209.942215 108.061295,201.287476 122.991768,192.529343 
	C125.770821,190.899170 127.436043,190.667267 129.335617,193.789383 
	C133.006775,199.823242 138.149902,204.586121 144.075714,209.012436 
z"/>
<path fill="#FCA407" opacity="1.000000" stroke="none" 
	d="
M155.339203,71.761047 
	C146.654251,56.749626 138.258072,42.005699 129.613846,27.408670 
	C127.828659,24.394135 128.076401,23.118622 131.273453,21.514769 
	C147.560242,13.344215 164.660080,8.498170 182.925064,7.770533 
	C186.133804,7.642704 187.257660,8.348688 187.227020,11.757436 
	C187.069794,29.242002 187.108124,46.728989 187.202545,64.214462 
	C187.216934,66.880615 186.639297,67.986984 183.674103,68.087204 
	C175.769424,68.354370 168.211761,70.426193 161.221924,74.097534 
	C158.181824,75.694321 156.674866,74.895554 155.339203,71.761047 
z"/>
<path fill="#FCA307" opacity="1.000000" stroke="none" 
	d="
M208.630692,8.126234 
	C224.768951,9.974595 239.652634,14.337189 253.739029,21.551945 
	C256.989777,23.216921 257.105682,24.488995 255.351883,27.453236 
	C246.546082,42.336735 237.915680,57.325272 229.368195,72.359085 
	C227.937576,74.875366 226.798691,75.633621 223.977158,74.178604 
	C216.814606,70.485023 209.129944,68.274925 201.042358,68.079239 
	C197.849808,68.001999 197.691498,66.437553 197.699234,64.005302 
	C197.754227,46.690224 197.823456,29.373941 197.650543,12.060416 
	C197.614761,8.476609 198.711441,7.267169 202.188690,7.802112 
	C204.150681,8.103946 206.173737,8.008896 208.630692,8.126234 
z"/>
<path fill="#FA6449" opacity="1.000000" stroke="none" 
	d="
M225.401855,218.241852 
	C228.165985,217.231247 228.506149,219.341553 229.267044,220.651657 
	C238.033218,235.745148 246.708679,250.891602 255.542175,265.945404 
	C257.017914,268.460327 257.132660,269.685028 254.180893,271.203613 
	C237.819244,279.621124 220.564987,284.437195 202.147324,285.230530 
	C198.563644,285.384857 197.640884,284.315948 197.673203,280.835907 
	C197.832397,263.697723 197.802597,246.556931 197.691818,229.418015 
	C197.672302,226.398010 198.243484,225.035126 201.709351,224.882751 
	C209.929031,224.521317 217.719086,222.183807 225.401855,218.241852 
z"/>
<path fill="#FA6449" opacity="1.000000" stroke="none" 
	d="
M187.148621,243.001007 
	C187.148575,255.823883 187.036514,268.148743 187.219345,280.469238 
	C187.271439,283.979431 186.674225,285.441467 182.637283,285.246338 
	C164.213303,284.355774 146.940140,279.560547 130.592407,271.090881 
	C127.908478,269.700378 127.968353,268.500061 129.327164,266.178497 
	C138.234711,250.959671 147.074005,235.700058 155.798538,220.375763 
	C157.179123,217.950806 158.342346,217.527573 160.862488,218.818573 
	C168.042374,222.496628 175.736435,224.599274 183.808701,224.944077 
	C186.434998,225.056244 187.269485,225.973724 187.188690,228.514160 
	C187.040543,233.172272 187.147797,237.838486 187.148621,243.001007 
z"/>
<path fill="#020202" opacity="1.000000" stroke="none" 
	d="
M171.547226,181.809570 
	C165.925583,181.810272 160.759644,181.698730 155.602020,181.857544 
	C153.056381,181.935913 152.097610,181.222672 152.138733,178.514908 
	C152.431931,159.213760 152.577911,139.910400 152.791122,120.607956 
	C152.810440,118.859474 152.427917,117.020859 155.031952,116.392441 
	C166.470123,113.632126 177.983002,111.980804 189.542221,115.212349 
	C201.614319,118.587280 207.586426,126.939171 207.143402,139.107880 
	C206.841125,147.410736 202.475204,153.111679 195.317871,156.828964 
	C190.086823,159.545822 184.464233,161.018188 178.565781,161.126556 
	C175.456863,161.183701 174.127289,162.225235 174.364029,165.578033 
	C174.668259,169.886368 174.435196,174.232513 174.438141,178.562363 
	C174.439301,180.257034 174.618958,182.076141 171.547226,181.809570 
z"/>
<path fill="#030201" opacity="1.000000" stroke="none" 
	d="
M267.407593,172.849686 
	C246.936600,159.406540 248.649872,131.349182 266.806152,118.752510 
	C267.501678,116.336578 269.455688,115.848541 271.124969,115.336517 
	C285.858856,110.817131 302.207703,113.788963 310.212036,128.527603 
	C312.236664,132.255661 313.576477,136.137466 313.395172,140.867615 
	C313.454773,144.425430 313.552856,147.557907 313.219269,151.098114 
	C309.052948,176.499069 281.789551,183.138367 267.407593,172.849686 
z"/>
<path fill="#030304" opacity="1.000000" stroke="none" 
	d="
M54.361061,134.229767 
	C47.464630,133.576569 47.561897,133.583893 47.075363,140.039612 
	C46.187382,151.822083 45.081345,163.588776 44.277546,175.376450 
	C44.094215,178.064941 43.454926,179.128647 40.551933,179.087723 
	C36.238548,179.026932 31.904940,179.401810 27.603731,179.830200 
	C24.770899,180.112320 23.884279,179.218185 23.933142,176.315659 
	C24.143465,163.822235 24.043571,151.323639 24.245956,138.830002 
	C24.293245,135.910675 23.853951,134.725708 20.478729,135.011551 
	C17.121948,135.295822 12.429719,137.131454 10.636368,134.894333 
	C8.928718,132.764130 10.108707,128.229309 10.207697,124.757050 
	C10.537572,113.185982 10.570031,113.189522 22.144642,113.186172 
	C33.476707,113.182899 44.808773,113.173546 56.606125,113.074646 
	C61.560059,111.511642 62.907501,112.225876 63.416683,116.610023 
	C63.800602,119.915611 63.620022,123.254211 63.564930,126.576462 
	C63.447086,133.682739 62.199066,134.772675 54.361061,134.229767 
z"/>
<path fill="#020202" opacity="1.000000" stroke="none" 
	d="
M211.193237,116.459244 
	C211.141891,113.595978 212.016144,112.424706 214.727051,112.507004 
	C220.719299,112.688919 226.729645,112.757309 232.715210,112.487045 
	C236.047607,112.336578 236.068497,113.874191 235.767609,116.356544 
	C234.426132,127.424149 233.506653,138.528885 232.682541,149.649307 
	C232.381332,153.713470 233.719421,154.492416 237.171860,154.026779 
	C238.480881,153.850220 239.833664,153.998077 241.166504,153.998077 
	C251.840698,153.998077 251.840668,153.998093 250.820251,164.847885 
	C249.855759,175.103027 249.853928,175.078369 239.660110,175.844330 
	C231.033936,176.492508 222.399796,177.080185 213.796051,177.958023 
	C210.677277,178.276260 209.841690,177.471375 209.929810,174.317413 
	C210.464340,155.185959 210.793121,136.048737 211.193237,116.459244 
z"/>
<path fill="#F86349" opacity="1.000000" stroke="none" 
	d="
M267.216919,172.816040 
	C286.882416,182.295609 307.061676,172.421509 311.993408,152.171326 
	C312.505127,151.552368 312.934601,151.445923 313.704498,151.672546 
	C315.156433,162.023819 318.989899,170.699478 328.134766,176.790375 
	C326.274933,188.111893 322.148590,198.405930 317.110870,208.400589 
	C315.787781,211.025635 314.568634,211.108566 312.197754,209.718445 
	C296.988434,200.800888 281.729980,191.965942 266.416840,183.227966 
	C264.049988,181.877411 263.257263,180.658035 264.819183,178.185440 
	C265.783081,176.659500 266.326904,174.868225 267.216919,172.816040 
z"/>
<path fill="#FAA208" opacity="1.000000" stroke="none" 
	d="
M312.937866,141.290924 
	C308.090210,117.955025 288.552551,108.031677 267.406006,118.412910 
	C266.295654,117.256851 265.626984,115.927094 264.802826,114.701935 
	C263.394684,112.608612 263.716339,111.306778 266.035339,109.982353 
	C281.620026,101.081627 297.165466,92.110336 312.631531,83.005478 
	C315.215393,81.484360 316.004761,82.625435 317.071899,84.623817 
	C322.669312,95.106102 326.368164,106.263954 329.155273,118.150528 
	C322.072998,124.237885 317.553589,131.630508 315.162170,140.809998 
	C314.451294,141.565323 313.851440,141.681076 312.937866,141.290924 
z"/>
<path fill="#6095E3" opacity="1.000000" stroke="none" 
	d="
M64.444267,151.802979 
	C64.833221,159.959915 64.921158,168.115067 64.612724,176.255203 
	C64.494492,179.375443 65.394714,180.345108 68.459259,180.202835 
	C73.607384,179.963867 80.016006,181.924393 83.589439,179.525772 
	C87.390419,176.974396 84.509842,170.022247 85.473518,165.105988 
	C85.825142,163.312195 84.708427,160.629364 88.301865,160.302963 
	C91.423973,160.019363 92.226662,161.662659 93.018608,164.037277 
	C94.489182,168.446747 96.337486,172.736023 97.676979,177.181274 
	C98.497780,179.905212 99.919846,180.457184 102.458694,179.893509 
	C107.964363,178.671158 113.503273,177.598495 119.369278,176.368683 
	C121.993698,180.401031 120.289688,182.404800 116.402069,184.554047 
	C101.879616,192.582642 87.535568,200.942825 73.283394,209.444855 
	C69.977470,211.416977 68.805420,210.328995 67.386597,207.489456 
	C59.501057,191.707870 54.796734,175.122177 53.782875,157.444107 
	C53.512600,152.731430 54.992245,151.118210 59.504883,151.762329 
	C60.970028,151.971451 62.490173,151.795212 64.444267,151.802979 
z"/>
<path fill="#020202" opacity="1.000000" stroke="none" 
	d="
M126.501434,115.554077 
	C132.603226,115.222328 138.266205,115.083496 143.884354,114.507446 
	C147.336212,114.153519 148.430908,115.031639 148.208588,118.656914 
	C147.099213,136.748230 146.010086,154.847610 145.438599,172.960693 
	C145.280441,177.973328 143.887299,179.893173 138.979752,179.123352 
	C138.008255,178.970963 136.985275,179.118561 135.987732,179.164810 
	C124.886719,179.679642 125.064270,179.677322 124.801743,168.763428 
	C124.413986,152.642944 123.703331,136.530411 123.246910,120.411171 
	C123.191132,118.441338 121.905952,115.306351 126.501434,115.554077 
z"/>
<path fill="#6094E3" opacity="1.000000" stroke="none" 
	d="
M53.891953,134.500000 
	C61.995701,132.269485 61.988838,132.269470 62.008392,123.620987 
	C62.013275,121.459846 61.869293,119.270111 62.162075,117.144249 
	C62.647724,113.617989 60.960785,112.749969 57.492844,113.076874 
	C59.669964,103.174995 63.156185,93.718262 67.859375,84.701042 
	C69.171257,82.185806 70.378014,81.904106 72.795013,83.319786 
	C87.968102,92.206947 103.178551,101.032555 118.477768,109.700043 
	C121.221970,111.254730 121.382782,112.688881 120.011986,115.208725 
	C118.834862,117.372559 118.120926,119.788368 117.076767,122.417786 
	C111.409737,115.532906 103.907471,112.200645 94.998848,111.786659 
	C86.323402,111.383507 77.755928,111.968292 69.358139,114.495651 
	C66.896378,115.236526 65.897621,116.313118 65.904907,118.953659 
	C65.924606,126.096809 65.656723,133.240753 65.293045,140.744827 
	C63.453648,141.110046 61.798252,140.930130 60.199406,141.154037 
	C55.310860,141.838623 52.749939,140.320221 53.891953,134.500000 
z"/>
<path fill="#6192DC" opacity="1.000000" stroke="none" 
	d="
M115.102402,165.612671 
	C112.444931,163.881073 111.447220,160.714020 109.952209,157.924789 
	C108.269386,154.785141 112.211693,154.813217 113.526520,153.008987 
	C114.295982,156.990768 114.754997,161.088135 115.102402,165.612671 
z"/>
<path fill="#6192DC" opacity="1.000000" stroke="none" 
	d="
M115.963455,167.801956 
	C115.570465,167.626770 115.219368,167.123383 114.915192,166.303680 
	C115.721169,166.194153 115.896461,166.810654 115.963455,167.801956 
z"/>
<path fill="#DED7D2" opacity="1.000000" stroke="none" 
	d="
M312.623260,141.542664 
	C313.261719,141.084412 313.839996,141.074585 314.705261,141.103622 
	C314.732605,144.462967 314.472961,147.783447 314.109680,151.470200 
	C313.583893,151.850830 313.161713,151.865173 312.424469,151.842651 
	C312.260620,148.534225 312.411835,145.262650 312.623260,141.542664 
z"/>
<path fill="#6094DF" opacity="1.000000" stroke="none" 
	d="
M87.061203,141.437592 
	C86.762260,138.543488 86.575401,135.891357 86.944084,133.318863 
	C87.195770,131.562698 85.794556,128.944763 88.332413,128.149231 
	C91.051460,127.296883 93.966019,127.526527 96.234352,129.670486 
	C99.505646,132.762405 99.923523,136.471970 98.028496,140.854614 
	C94.390282,142.877853 90.925056,142.776138 87.061203,141.437592 
z"/>
<path fill="#E9EDF2" opacity="1.000000" stroke="none" 
	d="
M86.582062,141.547424 
	C90.105499,141.151703 93.498627,141.141708 97.326912,141.154327 
	C96.336639,144.175140 93.428970,144.849609 90.639809,145.638107 
	C87.410065,146.551163 85.587410,145.722046 86.582062,141.547424 
z"/>
<path fill="#F2F2F2" opacity="1.000000" stroke="none" 
	d="
M177.689941,146.975372 
	C175.528091,147.219269 174.892761,146.393341 174.968948,144.724289 
	C175.074799,142.405243 175.048111,140.080292 175.142410,137.760498 
	C175.257233,134.935730 175.078781,131.952271 179.452927,132.356537 
	C183.172409,132.700302 185.869598,133.964783 186.212738,138.131790 
	C186.600113,142.835922 184.188553,145.460907 177.689941,146.975372 
z"/>
<path fill="#FAF4EF" opacity="1.000000" stroke="none" 
	d="
M275.385376,152.159760 
	C272.791229,148.715820 272.398926,145.344574 273.999268,141.413925 
	C279.251404,138.457642 284.432556,138.876282 290.106995,140.731125 
	C292.358887,144.433395 292.139008,147.882965 290.139008,151.581726 
	C285.296509,154.462494 280.566254,154.069183 275.385376,152.159760 
z"/>
<path fill="#F09B06" opacity="1.000000" stroke="none" 
	d="
M290.441742,140.588043 
	C285.400909,141.000854 280.244812,141.053452 274.633179,141.084747 
	C278.260010,133.359390 285.314636,132.994339 290.441742,140.588043 
z"/>
<path fill="#EE5E44" opacity="1.000000" stroke="none" 
	d="
M275.042175,152.235474 
	C279.651306,151.855255 284.316895,151.830948 289.442871,151.832367 
	C285.479248,158.268143 280.315704,158.523895 275.042175,152.235474 
z"/>
</svg>